<?xml version="1.0" encoding="UTF-8"?>
<svg width="700pt" height="700pt" version="1.1" viewBox="0 0 700 700" xmlns="http://www.w3.org/2000/svg" xmlns:xlink="http://www.w3.org/1999/xlink">
 <defs>
  <symbol id="v" overflow="visible">
   <path d="m6.2344-0.375c-0.32422 0.16797-0.66406 0.29297-1.0156 0.375-0.34375 0.082031-0.70312 0.125-1.0781 0.125-1.1367 0-2.0312-0.3125-2.6875-0.9375-0.65625-0.63281-0.98438-1.4883-0.98438-2.5625 0-1.082 0.32812-1.9414 0.98438-2.5781 0.65625-0.63281 1.5508-0.95312 2.6875-0.95312 0.375 0 0.73438 0.046875 1.0781 0.14062 0.35156 0.085937 0.69141 0.21094 1.0156 0.375v1.3906c-0.32422-0.21875-0.64844-0.37891-0.96875-0.48438-0.3125-0.10156-0.64062-0.15625-0.98438-0.15625-0.625 0-1.1211 0.20312-1.4844 0.60938-0.35547 0.39844-0.53125 0.94922-0.53125 1.6562 0 0.69922 0.17578 1.2461 0.53125 1.6406 0.36328 0.39844 0.85938 0.59375 1.4844 0.59375 0.34375 0 0.67188-0.046875 0.98438-0.14062 0.32031-0.10156 0.64453-0.26953 0.96875-0.5z"/>
  </symbol>
  <symbol id="c" overflow="visible">
   <path d="m4.5625-3.7031c-0.14844-0.0625-0.29297-0.10938-0.4375-0.14062-0.13672-0.03125-0.27734-0.046875-0.42188-0.046875-0.41797 0-0.74219 0.13672-0.96875 0.40625-0.21875 0.26172-0.32812 0.64062-0.32812 1.1406v2.3438h-1.625v-5.0781h1.625v0.82812c0.20703-0.33203 0.44531-0.57031 0.71875-0.71875 0.26953-0.15625 0.59375-0.23438 0.96875-0.23438 0.0625 0 0.125 0.007813 0.1875 0.015625 0.0625 0 0.14844 0.007812 0.26562 0.015625z"/>
  </symbol>
  <symbol id="b" overflow="visible">
   <path d="m5.8594-2.5625v0.46875h-3.7969c0.03125 0.38672 0.16406 0.67188 0.40625 0.85938 0.23828 0.1875 0.56641 0.28125 0.98438 0.28125 0.34375 0 0.69141-0.046875 1.0469-0.14062 0.36328-0.10156 0.73438-0.25781 1.1094-0.46875v1.25c-0.38672 0.14844-0.77344 0.25781-1.1562 0.32812-0.375 0.070312-0.75781 0.10938-1.1406 0.10938-0.92969 0-1.6484-0.22656-2.1562-0.6875-0.5-0.46875-0.75-1.125-0.75-1.9688 0-0.83203 0.25-1.4844 0.75-1.9531 0.5-0.47656 1.1875-0.71875 2.0625-0.71875 0.80078 0 1.4414 0.24219 1.9219 0.71875 0.47656 0.48047 0.71875 1.1211 0.71875 1.9219zm-1.6719-0.53125c0-0.3125-0.09375-0.5625-0.28125-0.75-0.17969-0.1875-0.41406-0.28125-0.70312-0.28125-0.3125 0-0.57031 0.089844-0.76562 0.26562-0.19922 0.17969-0.32031 0.43359-0.35938 0.76562z"/>
  </symbol>
  <symbol id="h" overflow="visible">
   <path d="m3.0625-2.2812c-0.34375 0-0.60547 0.058594-0.78125 0.17188-0.16797 0.11719-0.25 0.28125-0.25 0.5 0 0.21094 0.066406 0.37109 0.20312 0.48438 0.14453 0.11719 0.33594 0.17188 0.57812 0.17188 0.3125 0 0.57031-0.10938 0.78125-0.32812 0.20703-0.21875 0.3125-0.49219 0.3125-0.82812v-0.17188zm2.4844-0.625v2.9062h-1.6406v-0.75c-0.21875 0.30469-0.46484 0.52734-0.73438 0.67188-0.27344 0.13281-0.60547 0.20312-1 0.20312-0.52344 0-0.94922-0.14844-1.2812-0.45312-0.32422-0.3125-0.48438-0.71094-0.48438-1.2031 0-0.59375 0.20312-1.0234 0.60938-1.2969 0.40625-0.28125 1.0508-0.42188 1.9375-0.42188h0.95312v-0.125c0-0.25781-0.10547-0.44531-0.3125-0.5625-0.19922-0.125-0.51172-0.1875-0.9375-0.1875-0.35547 0-0.68359 0.039062-0.98438 0.10938-0.29297 0.0625-0.57031 0.16797-0.82812 0.3125v-1.25c0.34375-0.082031 0.69141-0.14453 1.0469-0.1875 0.35156-0.039063 0.70703-0.0625 1.0625-0.0625 0.91406 0 1.5781 0.18359 1.9844 0.54688 0.40625 0.35547 0.60938 0.9375 0.60938 1.75z"/>
  </symbol>
  <symbol id="a" overflow="visible">
   <path d="m2.5625-6.5312v1.4531h1.6719v1.1562h-1.6719v2.1562c0 0.24219 0.046875 0.40234 0.14062 0.48438 0.09375 0.085938 0.27344 0.125 0.54688 0.125h0.84375v1.1562h-1.3906c-0.64844 0-1.1055-0.12891-1.375-0.39062-0.26172-0.26953-0.39062-0.72656-0.39062-1.375v-2.1562h-0.8125v-1.1562h0.8125v-1.4531z"/>
  </symbol>
  <symbol id="g" overflow="visible">
   <path d="m4.2344-4.3438v-2.7188h1.6406v7.0625h-1.6406v-0.73438c-0.21875 0.30469-0.46484 0.52344-0.73438 0.65625-0.27344 0.13281-0.58594 0.20312-0.9375 0.20312-0.625 0-1.1406-0.24219-1.5469-0.73438-0.39844-0.5-0.59375-1.1406-0.59375-1.9219 0-0.78906 0.19531-1.4297 0.59375-1.9219 0.40625-0.5 0.92188-0.75 1.5469-0.75 0.35156 0 0.66406 0.074219 0.9375 0.21875 0.26953 0.13672 0.51562 0.35156 0.73438 0.64062zm-1.0625 3.2969c0.34375 0 0.60156-0.125 0.78125-0.375 0.1875-0.25781 0.28125-0.62891 0.28125-1.1094 0-0.48828-0.09375-0.85938-0.28125-1.1094-0.17969-0.25781-0.4375-0.39062-0.78125-0.39062s-0.60938 0.13281-0.79688 0.39062c-0.17969 0.25-0.26562 0.62109-0.26562 1.1094 0 0.48047 0.085937 0.85156 0.26562 1.1094 0.1875 0.25 0.45312 0.375 0.79688 0.375z"/>
  </symbol>
  <symbol id="l" overflow="visible">
   <path d="m3.4844-1.0469c0.35156 0 0.61719-0.125 0.79688-0.375 0.1875-0.25781 0.28125-0.62891 0.28125-1.1094 0-0.48828-0.09375-0.85938-0.28125-1.1094-0.17969-0.25781-0.44531-0.39062-0.79688-0.39062-0.34375 0-0.60938 0.13281-0.79688 0.39062-0.1875 0.25-0.28125 0.62109-0.28125 1.1094 0 0.48047 0.09375 0.85156 0.28125 1.1094 0.1875 0.25 0.45312 0.375 0.79688 0.375zm-1.0781-3.2969c0.21875-0.28906 0.46094-0.50391 0.73438-0.64062 0.28125-0.14453 0.59766-0.21875 0.95312-0.21875 0.625 0 1.1328 0.25 1.5312 0.75 0.40625 0.49219 0.60938 1.1328 0.60938 1.9219 0 0.78125-0.20312 1.4219-0.60938 1.9219-0.39844 0.49219-0.90625 0.73438-1.5312 0.73438-0.35547 0-0.67188-0.070312-0.95312-0.20312-0.27344-0.14453-0.51562-0.36328-0.73438-0.65625v0.73438h-1.625v-7.0625h1.625z"/>
  </symbol>
  <symbol id="f" overflow="visible">
   <path d="m0.10938-5.0781h1.625l1.375 3.4375 1.1562-3.4375h1.625l-2.1406 5.5625c-0.21094 0.5625-0.46094 0.95312-0.75 1.1719-0.28125 0.22656-0.65625 0.34375-1.125 0.34375h-0.9375v-1.0625h0.5c0.28125 0 0.48438-0.046875 0.60938-0.14062 0.125-0.085937 0.21875-0.24219 0.28125-0.46875l0.046875-0.14062z"/>
  </symbol>
  <symbol id="k" overflow="visible">
   <path d="m3.3438-3.7656c0.36328 0 0.625-0.066406 0.78125-0.20312 0.15625-0.14453 0.23438-0.375 0.23438-0.6875 0-0.30078-0.078125-0.51953-0.23438-0.65625-0.15625-0.13281-0.41797-0.20312-0.78125-0.20312h-0.75v1.75zm-0.75 1.2031v2.5625h-1.7344v-6.7812h2.6562c0.89453 0 1.5508 0.15234 1.9688 0.45312 0.41406 0.30469 0.625 0.77734 0.625 1.4219 0 0.44922-0.10938 0.82031-0.32812 1.1094-0.21094 0.28125-0.53125 0.49219-0.96875 0.625 0.23828 0.054687 0.45312 0.17969 0.64062 0.375 0.1875 0.1875 0.37891 0.48047 0.57812 0.875l0.9375 1.9219h-1.8594l-0.82812-1.6875c-0.16797-0.33203-0.33984-0.5625-0.51562-0.6875-0.16797-0.125-0.39062-0.1875-0.67188-0.1875z"/>
  </symbol>
  <symbol id="e" overflow="visible">
   <path d="m0.71875-1.9844v-3.0938h1.6406v0.5c0 0.28125-0.007813 0.63281-0.015625 1.0469v0.82812c0 0.40625 0.007812 0.70312 0.03125 0.89062 0.03125 0.17969 0.066406 0.30469 0.10938 0.375 0.070313 0.11719 0.16016 0.20312 0.26562 0.26562 0.11328 0.054687 0.23828 0.078125 0.375 0.078125 0.33203 0 0.59766-0.12891 0.79688-0.39062 0.19531-0.25781 0.29688-0.625 0.29688-1.0938v-2.5h1.625v5.0781h-1.625v-0.73438c-0.25 0.29297-0.51562 0.51172-0.79688 0.65625-0.27344 0.13281-0.57031 0.20312-0.89062 0.20312-0.59375 0-1.0469-0.17578-1.3594-0.53125-0.30469-0.36328-0.45312-0.89062-0.45312-1.5781z"/>
  </symbol>
  <symbol id="j" overflow="visible">
   <path d="m0.78125-5.0781h1.625v5.0781h-1.625zm0-1.9844h1.625v1.3281h-1.625z"/>
  </symbol>
  <symbol id="u" overflow="visible">
   <path d="m4.75-4.9219v1.2344c-0.34375-0.14453-0.67969-0.25391-1-0.32812-0.32422-0.070313-0.63281-0.10938-0.92188-0.10938-0.3125 0-0.54297 0.042969-0.6875 0.125-0.14844 0.074219-0.21875 0.1875-0.21875 0.34375 0 0.13672 0.050781 0.24219 0.15625 0.3125 0.11328 0.0625 0.32031 0.10938 0.625 0.14062l0.28125 0.046875c0.83203 0.10547 1.3906 0.27734 1.6719 0.51562 0.28906 0.24219 0.4375 0.62109 0.4375 1.1406 0 0.54297-0.20312 0.94922-0.60938 1.2188-0.39844 0.27344-0.99219 0.40625-1.7812 0.40625-0.33594 0-0.68359-0.027344-1.0469-0.078125-0.35547-0.050781-0.71875-0.12891-1.0938-0.23438v-1.2344c0.32031 0.15625 0.64844 0.27734 0.98438 0.35938 0.34375 0.074219 0.69141 0.10938 1.0469 0.10938 0.3125 0 0.54688-0.039063 0.70312-0.125 0.16406-0.09375 0.25-0.22266 0.25-0.39062 0-0.14453-0.058594-0.25391-0.17188-0.32812-0.10547-0.070313-0.32422-0.12891-0.65625-0.17188l-0.28125-0.03125c-0.71875-0.09375-1.2266-0.25781-1.5156-0.5-0.29297-0.25-0.4375-0.625-0.4375-1.125 0-0.53125 0.17969-0.92578 0.54688-1.1875 0.375-0.25781 0.94141-0.39062 1.7031-0.39062 0.30078 0 0.61328 0.023437 0.9375 0.0625 0.33203 0.042969 0.69141 0.11719 1.0781 0.21875z"/>
  </symbol>
  <symbol id="t" overflow="visible">
   <path d="m2.4062-0.73438v2.6719h-1.625v-7.0156h1.625v0.73438c0.21875-0.28906 0.46094-0.50391 0.73438-0.64062 0.28125-0.14453 0.59766-0.21875 0.95312-0.21875 0.625 0 1.1328 0.25 1.5312 0.75 0.40625 0.49219 0.60938 1.1328 0.60938 1.9219 0 0.78125-0.20312 1.4219-0.60938 1.9219-0.39844 0.49219-0.90625 0.73438-1.5312 0.73438-0.35547 0-0.67188-0.070312-0.95312-0.20312-0.27344-0.14453-0.51562-0.36328-0.73438-0.65625zm1.0781-3.2969c-0.34375 0-0.60938 0.13281-0.79688 0.39062-0.1875 0.25-0.28125 0.62109-0.28125 1.1094 0 0.48047 0.09375 0.85156 0.28125 1.1094 0.1875 0.25 0.45312 0.375 0.79688 0.375 0.35156 0 0.61719-0.125 0.79688-0.375 0.1875-0.25781 0.28125-0.62891 0.28125-1.1094 0-0.48828-0.09375-0.85938-0.28125-1.1094-0.17969-0.25781-0.44531-0.39062-0.79688-0.39062z"/>
  </symbol>
  <symbol id="i" overflow="visible">
   <path d="m5.8906-3.0938v3.0938h-1.625v-2.375c0-0.4375-0.011719-0.73828-0.03125-0.90625-0.023437-0.16406-0.058594-0.28516-0.10938-0.35938-0.0625-0.10156-0.15234-0.1875-0.26562-0.25-0.10547-0.0625-0.22656-0.09375-0.35938-0.09375-0.34375 0-0.61719 0.13281-0.8125 0.39062-0.1875 0.26172-0.28125 0.625-0.28125 1.0938v2.5h-1.625v-5.0781h1.625v0.73438c0.25-0.28906 0.50781-0.50391 0.78125-0.64062 0.26953-0.14453 0.57031-0.21875 0.90625-0.21875 0.59375 0 1.0391 0.18359 1.3438 0.54688 0.30078 0.35547 0.45312 0.875 0.45312 1.5625z"/>
  </symbol>
  <symbol id="d" overflow="visible">
   <path d="m3.2031-4.0469c-0.36719 0-0.64062 0.13281-0.82812 0.39062-0.1875 0.26172-0.28125 0.63672-0.28125 1.125 0 0.48047 0.09375 0.85156 0.28125 1.1094 0.1875 0.26172 0.46094 0.39062 0.82812 0.39062 0.35156 0 0.625-0.12891 0.8125-0.39062 0.1875-0.25781 0.28125-0.62891 0.28125-1.1094 0-0.48828-0.09375-0.86328-0.28125-1.125-0.1875-0.25781-0.46094-0.39062-0.8125-0.39062zm0-1.1562c0.875 0 1.5547 0.23438 2.0469 0.70312 0.48828 0.46875 0.73438 1.125 0.73438 1.9688 0 0.83594-0.24609 1.4844-0.73438 1.9531-0.49219 0.46875-1.1719 0.70312-2.0469 0.70312s-1.5625-0.23438-2.0625-0.70312c-0.49219-0.46875-0.73438-1.1172-0.73438-1.9531 0-0.84375 0.24219-1.5 0.73438-1.9688 0.5-0.46875 1.1875-0.70312 2.0625-0.70312z"/>
  </symbol>
  <symbol id="s" overflow="visible">
   <path d="m4.125-7.0625v1.0625h-0.89062c-0.24219 0-0.40625 0.042969-0.5 0.125-0.085937 0.085938-0.125 0.23047-0.125 0.4375v0.35938h1.3906v1.1562h-1.3906v3.9219h-1.625v-3.9219h-0.8125v-1.1562h0.8125v-0.35938c0-0.55078 0.14844-0.95703 0.45312-1.2188 0.3125-0.26953 0.78906-0.40625 1.4375-0.40625z"/>
  </symbol>
  <symbol id="r" overflow="visible">
   <path d="m5.5-4.2344c0.19531-0.32031 0.4375-0.5625 0.71875-0.71875 0.28906-0.16406 0.60156-0.25 0.9375-0.25 0.58203 0 1.0234 0.18359 1.3281 0.54688 0.3125 0.35547 0.46875 0.875 0.46875 1.5625v3.0938h-1.6406v-2.6562c0.007812-0.03125 0.015625-0.066406 0.015625-0.10938v-0.1875c0-0.36328-0.054687-0.625-0.15625-0.78125-0.10547-0.16406-0.27734-0.25-0.51562-0.25-0.3125 0-0.55469 0.13281-0.71875 0.39062-0.16797 0.25-0.25781 0.61719-0.26562 1.0938v2.5h-1.625v-2.6562c0-0.5625-0.054687-0.92188-0.15625-1.0781-0.09375-0.16406-0.26562-0.25-0.51562-0.25-0.30469 0-0.54297 0.13281-0.71875 0.39062-0.16797 0.25-0.25 0.61719-0.25 1.0938v2.5h-1.6406v-5.0781h1.6406v0.73438c0.19531-0.28125 0.42578-0.49219 0.6875-0.64062 0.25781-0.14453 0.54688-0.21875 0.85938-0.21875 0.34375 0 0.64844 0.085937 0.92188 0.25 0.26953 0.16797 0.47656 0.40625 0.625 0.71875z"/>
  </symbol>
  <symbol id="q" overflow="visible">
   <path d="m5.8906-3.0938v3.0938h-1.625v-2.3594c0-0.44531-0.011719-0.75391-0.03125-0.92188-0.023437-0.16406-0.058594-0.28516-0.10938-0.35938-0.0625-0.10156-0.15234-0.1875-0.26562-0.25-0.10547-0.0625-0.22656-0.09375-0.35938-0.09375-0.34375 0-0.61719 0.13281-0.8125 0.39062-0.1875 0.26172-0.28125 0.625-0.28125 1.0938v2.5h-1.625v-7.0625h1.625v2.7188c0.25-0.28906 0.50781-0.50391 0.78125-0.64062 0.26953-0.14453 0.57031-0.21875 0.90625-0.21875 0.59375 0 1.0391 0.18359 1.3438 0.54688 0.30078 0.35547 0.45312 0.875 0.45312 1.5625z"/>
  </symbol>
  <symbol id="p" overflow="visible">
   <path d="m0.85938-6.7812h1.9531l2.4531 4.6562v-4.6562h1.6562v6.7812h-1.9531l-2.4531-4.6562v4.6562h-1.6562z"/>
  </symbol>
  <symbol id="o" overflow="visible">
   <path d="m0.85938-6.7812h2.8906c0.86328 0 1.5234 0.19531 1.9844 0.57812 0.46875 0.38672 0.70312 0.93359 0.70312 1.6406 0 0.71094-0.23438 1.2578-0.70312 1.6406-0.46094 0.38672-1.1211 0.57812-1.9844 0.57812h-1.1562v2.3438h-1.7344zm1.7344 1.2656v1.8906h0.96875c0.34375 0 0.60156-0.078125 0.78125-0.23438 0.1875-0.16406 0.28125-0.39844 0.28125-0.70312 0-0.30078-0.09375-0.53516-0.28125-0.70312-0.17969-0.16406-0.4375-0.25-0.78125-0.25z"/>
  </symbol>
  <symbol id="n" overflow="visible">
   <path d="m0.78125-5.0781h1.625v4.9844c0 0.6875-0.16797 1.207-0.5 1.5625-0.32422 0.35156-0.79297 0.53125-1.4062 0.53125h-0.8125v-1.0625h0.28125c0.3125 0 0.52344-0.074219 0.64062-0.21875 0.11328-0.13672 0.17188-0.40625 0.17188-0.8125zm0-1.9844h1.625v1.3281h-1.625z"/>
  </symbol>
  <symbol id="m" overflow="visible">
   <path d="m4.8906-4.9219v1.3281c-0.21875-0.15625-0.44531-0.26953-0.67188-0.34375-0.21875-0.070312-0.44922-0.10938-0.6875-0.10938-0.46094 0-0.8125 0.13672-1.0625 0.40625-0.25 0.26172-0.375 0.63281-0.375 1.1094 0 0.46875 0.125 0.83984 0.375 1.1094 0.25 0.26172 0.60156 0.39062 1.0625 0.39062 0.25 0 0.48828-0.035156 0.71875-0.10938 0.22656-0.070313 0.44141-0.1875 0.64062-0.34375v1.3281c-0.26172 0.09375-0.52344 0.16016-0.78125 0.20312-0.26172 0.050781-0.52344 0.078125-0.78125 0.078125-0.91797 0-1.6367-0.23438-2.1562-0.70312-0.51172-0.46875-0.76562-1.1172-0.76562-1.9531 0-0.84375 0.25391-1.5 0.76562-1.9688 0.51953-0.46875 1.2383-0.70312 2.1562-0.70312 0.26953 0 0.53125 0.027344 0.78125 0.078125 0.25781 0.042969 0.51953 0.10938 0.78125 0.20312z"/>
  </symbol>
 </defs>
 <g>
  <path d="m83.023 446.51c7.4414 20.465-24.188 31.629-31.629 13.023-16.746-46.512-16.746-94.883 0-141.39 14.883-37.211 9.3008-52.094 0-91.164-5.582-33.488 0-63.254 14.883-83.723 13.023-20.465 35.348-31.629 65.117-37.211 13.023-14.883 26.047-26.047 42.789-35.348 42.789-26.047 52.094-7.4414 66.977-33.488 7.4414-14.883 3.7227-39.07 24.188-37.211 33.488 3.7227 1.8594 74.418-29.766 83.723-16.746 1.8594-31.629 7.4414-46.512 14.883-16.746 11.164-26.047 22.324-39.07 39.07-26.047 1.8594-44.652 7.4414-57.676 24.188-9.3008 14.883-13.023 33.488-9.3008 59.535 5.582 18.605 9.3008 37.211 9.3008 53.953 0 50.234-20.465 59.535-20.465 111.63-1.8594 20.465 3.7227 40.93 11.164 59.535zm442.79-215.81c5.582-22.324 37.211-13.023 29.766 9.3008l-18.605 74.418c-7.4414 37.211 33.488 150.7 35.348 152.56 5.582 18.605-24.188 31.629-31.629 11.164 0 0-13.023-35.348-22.324-74.418-9.3008 46.512-14.883 96.746-14.883 141.39 0 20.465-33.488 20.465-33.488 0 0-130.23 53.953-314.42 55.812-314.42zm122.79 228.84c-7.4414 18.605-39.07 7.4414-31.629-13.023 31.629-80-9.3008-113.49-9.3008-171.16 0-16.746 3.7227-35.348 9.3008-53.953 3.7227-26.047 0-44.652-9.3008-59.535-13.023-16.746-31.629-22.324-57.676-24.188-57.676-76.277-87.441-29.766-119.07-83.723-7.4414-13.023-22.324-50.234 3.7227-53.953 20.465-1.8594 16.746 22.324 24.188 37.211 14.883 26.047 24.188 7.4414 66.977 33.488 16.746 9.3008 29.766 20.465 42.789 35.348 29.766 5.582 52.094 16.746 65.117 37.211 14.883 20.465 20.465 50.234 14.883 83.723-1.8594 14.883-7.4414 22.324-9.3008 48.371 0 16.746 3.7227 29.766 9.3008 44.652 16.746 44.652 16.746 94.883 0 139.54zm-504.19-219.54c-7.4414-22.324 24.188-31.629 29.766-9.3008 1.8594 0 55.812 184.19 55.812 314.42 0 20.465-33.488 20.465-33.488 0 0-44.652-5.582-94.883-14.883-141.39-9.3008 39.07-22.324 74.418-22.324 74.418-7.4414 20.465-37.211 7.4414-31.629-11.164 1.8594-1.8594 42.789-115.35 35.348-152.56l-18.605-74.418z"/>
  <use x="38.371094" y="587.90625" xlink:href="#v"/>
  <use x="45.199219" y="587.90625" xlink:href="#c"/>
  <use x="49.785156" y="587.90625" xlink:href="#b"/>
  <use x="56.09375" y="587.90625" xlink:href="#h"/>
  <use x="62.371094" y="587.90625" xlink:href="#a"/>
  <use x="66.820312" y="587.90625" xlink:href="#b"/>
  <use x="73.128906" y="587.90625" xlink:href="#g"/>
  <use x="83.027344" y="587.90625" xlink:href="#l"/>
  <use x="89.683594" y="587.90625" xlink:href="#f"/>
  <use x="98.988281" y="587.90625" xlink:href="#k"/>
  <use x="106.148438" y="587.90625" xlink:href="#e"/>
  <use x="112.773438" y="587.90625" xlink:href="#g"/>
  <use x="119.429687" y="587.90625" xlink:href="#j"/>
  <use x="125.859375" y="587.90625" xlink:href="#u"/>
  <use x="131.394531" y="587.90625" xlink:href="#e"/>
  <use x="138.019531" y="587.90625" xlink:href="#t"/>
  <use x="144.675781" y="587.90625" xlink:href="#c"/>
  <use x="149.265625" y="587.90625" xlink:href="#j"/>
  <use x="152.453125" y="587.90625" xlink:href="#f"/>
  <use x="158.515625" y="587.90625" xlink:href="#h"/>
  <use x="164.792969" y="587.90625" xlink:href="#i"/>
  <use x="171.417969" y="587.90625" xlink:href="#a"/>
  <use x="175.863281" y="587.90625" xlink:href="#d"/>
  <use x="38.371094" y="597.210937" xlink:href="#s"/>
  <use x="42.417969" y="597.210937" xlink:href="#c"/>
  <use x="47.007812" y="597.210937" xlink:href="#d"/>
  <use x="53.398438" y="597.210937" xlink:href="#r"/>
  <use x="66.328125" y="597.210937" xlink:href="#a"/>
  <use x="70.777344" y="597.210937" xlink:href="#q"/>
  <use x="77.398438" y="597.210937" xlink:href="#b"/>
  <use x="86.945312" y="597.210937" xlink:href="#p"/>
  <use x="94.730469" y="597.210937" xlink:href="#d"/>
  <use x="101.121094" y="597.210937" xlink:href="#e"/>
  <use x="107.746094" y="597.210937" xlink:href="#i"/>
  <use x="117.605469" y="597.210937" xlink:href="#o"/>
  <use x="124.421875" y="597.210937" xlink:href="#c"/>
  <use x="129.011719" y="597.210937" xlink:href="#d"/>
  <use x="135.402344" y="597.210937" xlink:href="#n"/>
  <use x="138.589844" y="597.210937" xlink:href="#b"/>
  <use x="144.898438" y="597.210937" xlink:href="#m"/>
  <use x="150.414062" y="597.210937" xlink:href="#a"/>
 </g>
</svg>
