<?xml version="1.0" encoding="UTF-8"?>
<svg width="700pt" height="700pt" version="1.1" viewBox="0 0 700 700" xmlns="http://www.w3.org/2000/svg" xmlns:xlink="http://www.w3.org/1999/xlink">
 <defs>
  <symbol id="w" overflow="visible">
   <path d="m1.875-0.10938c-0.09375 0.054688-0.19531 0.089844-0.29688 0.10938-0.10547 0.03125-0.21484 0.046875-0.32812 0.046875-0.34375 0-0.61719-0.09375-0.8125-0.28125-0.19922-0.19531-0.29688-0.45703-0.29688-0.78125 0-0.32031 0.097656-0.57812 0.29688-0.76562 0.19531-0.19531 0.46875-0.29688 0.8125-0.29688 0.11328 0 0.22266 0.015625 0.32812 0.046875 0.10156 0.023438 0.20312 0.058594 0.29688 0.10938v0.42188c-0.09375-0.070312-0.19531-0.11719-0.29688-0.14062-0.09375-0.03125-0.19531-0.046875-0.29688-0.046875-0.1875 0-0.33594 0.0625-0.4375 0.1875-0.10547 0.11719-0.15625 0.27734-0.15625 0.48438 0 0.21094 0.050781 0.375 0.15625 0.5 0.10156 0.11719 0.25 0.17188 0.4375 0.17188 0.10156 0 0.20312-0.015625 0.29688-0.046875 0.10156-0.03125 0.20312-0.078125 0.29688-0.14062z"/>
  </symbol>
  <symbol id="d" overflow="visible">
   <path d="m1.375-1.1094c-0.042969-0.019531-0.085938-0.035156-0.125-0.046875-0.042969-0.007812-0.089844-0.015625-0.14062-0.015625-0.125 0-0.22656 0.042969-0.29688 0.125-0.0625 0.074219-0.09375 0.1875-0.09375 0.34375v0.70312h-0.48438v-1.5312h0.48438v0.25c0.0625-0.09375 0.13281-0.16016 0.21875-0.20312 0.082031-0.050781 0.17969-0.078125 0.29688-0.078125h0.046875 0.09375z"/>
  </symbol>
  <symbol id="a" overflow="visible">
   <path d="m1.7656-0.76562v0.14062h-1.1406c0.007812 0.11719 0.046875 0.20312 0.10938 0.26562 0.070313 0.054687 0.17578 0.078125 0.3125 0.078125 0.09375 0 0.19141-0.015625 0.29688-0.046875 0.11328-0.03125 0.22656-0.078125 0.34375-0.14062v0.375c-0.11719 0.042969-0.23047 0.074219-0.34375 0.09375-0.11719 0.03125-0.23047 0.046875-0.34375 0.046875-0.28125 0-0.5-0.066406-0.65625-0.20312-0.14844-0.14453-0.21875-0.34766-0.21875-0.60938 0-0.25 0.070312-0.44141 0.21875-0.57812 0.15625-0.14453 0.36328-0.21875 0.625-0.21875 0.23828 0 0.42969 0.074219 0.57812 0.21875 0.14453 0.14844 0.21875 0.33984 0.21875 0.57812zm-0.5-0.17188c0-0.09375-0.03125-0.16406-0.09375-0.21875-0.054687-0.050781-0.12109-0.078125-0.20312-0.078125-0.09375 0-0.17188 0.027344-0.23438 0.078125-0.0625 0.054688-0.10156 0.125-0.10938 0.21875z"/>
  </symbol>
  <symbol id="f" overflow="visible">
   <path d="m0.92188-0.6875c-0.10547 0-0.18359 0.023438-0.23438 0.0625-0.054688 0.03125-0.078125 0.078125-0.078125 0.14062s0.019531 0.11719 0.0625 0.15625c0.039063 0.03125 0.097656 0.046875 0.17188 0.046875 0.09375 0 0.17188-0.03125 0.23438-0.09375 0.0625-0.070312 0.09375-0.15625 0.09375-0.25v-0.0625zm0.75-0.1875v0.875h-0.5v-0.23438c-0.0625 0.09375-0.13672 0.16797-0.21875 0.21875-0.085937 0.039062-0.18359 0.0625-0.29688 0.0625-0.15625 0-0.28906-0.046875-0.39062-0.14062-0.09375-0.09375-0.14062-0.21094-0.14062-0.35938 0-0.1875 0.054688-0.32031 0.17188-0.40625 0.125-0.082031 0.32031-0.125 0.59375-0.125h0.28125v-0.03125c0-0.082031-0.03125-0.14062-0.09375-0.17188s-0.15625-0.046875-0.28125-0.046875c-0.10547 0-0.20312 0.011719-0.29688 0.03125-0.085938 0.023437-0.16797 0.054687-0.25 0.09375v-0.375c0.10156-0.03125 0.20703-0.050781 0.3125-0.0625 0.11328-0.007813 0.22266-0.015625 0.32812-0.015625 0.26953 0 0.46875 0.058594 0.59375 0.17188 0.125 0.10547 0.1875 0.27734 0.1875 0.51562z"/>
  </symbol>
  <symbol id="b" overflow="visible">
   <path d="m0.76562-1.9688v0.4375h0.5v0.34375h-0.5v0.65625c0 0.074219 0.015625 0.125 0.046875 0.15625 0.03125 0.023438 0.085938 0.03125 0.17188 0.03125h0.25v0.34375h-0.42188c-0.19922 0-0.33984-0.035156-0.42188-0.10938-0.074219-0.082031-0.10938-0.22266-0.10938-0.42188v-0.65625h-0.25v-0.34375h0.25v-0.4375z"/>
  </symbol>
  <symbol id="e" overflow="visible">
   <path d="m1.2812-1.3125v-0.8125h0.48438v2.125h-0.48438v-0.21875c-0.074219 0.085938-0.15234 0.15234-0.23438 0.20312-0.074219 0.039062-0.16797 0.0625-0.28125 0.0625-0.1875 0-0.34375-0.070312-0.46875-0.21875-0.11719-0.15625-0.17188-0.35156-0.17188-0.59375 0-0.22656 0.054688-0.41406 0.17188-0.5625 0.125-0.15625 0.28125-0.23438 0.46875-0.23438 0.11328 0 0.20703 0.023438 0.28125 0.0625 0.082031 0.042969 0.16016 0.10547 0.23438 0.1875zm-0.32812 1c0.10156 0 0.17969-0.035156 0.23438-0.10938 0.0625-0.082031 0.09375-0.19531 0.09375-0.34375 0-0.14453-0.03125-0.25391-0.09375-0.32812-0.054688-0.082031-0.13281-0.125-0.23438-0.125-0.10547 0-0.1875 0.042969-0.25 0.125-0.054687 0.074219-0.078125 0.18359-0.078125 0.32812 0 0.14844 0.023438 0.26172 0.078125 0.34375 0.0625 0.074219 0.14453 0.10938 0.25 0.10938z"/>
  </symbol>
  <symbol id="k" overflow="visible">
   <path d="m1.0469-0.3125c0.10156 0 0.17969-0.035156 0.23438-0.10938 0.0625-0.082031 0.09375-0.19531 0.09375-0.34375 0-0.14453-0.03125-0.25391-0.09375-0.32812-0.054688-0.082031-0.13281-0.125-0.23438-0.125-0.10547 0-0.1875 0.042969-0.25 0.125-0.054687 0.074219-0.078125 0.18359-0.078125 0.32812 0 0.14844 0.023438 0.26172 0.078125 0.34375 0.0625 0.074219 0.14453 0.10938 0.25 0.10938zm-0.32812-1c0.070312-0.082031 0.14844-0.14453 0.23438-0.1875 0.082031-0.039062 0.17578-0.0625 0.28125-0.0625 0.1875 0 0.33594 0.078125 0.45312 0.23438 0.125 0.14844 0.1875 0.33594 0.1875 0.5625 0 0.24219-0.0625 0.4375-0.1875 0.59375-0.11719 0.14844-0.26562 0.21875-0.45312 0.21875-0.10547 0-0.19922-0.023438-0.28125-0.0625-0.085937-0.050781-0.16406-0.11719-0.23438-0.20312v0.21875h-0.48438v-2.125h0.48438z"/>
  </symbol>
  <symbol id="j" overflow="visible">
   <path d="m0.03125-1.5312h0.48438l0.42188 1.0469 0.34375-1.0469h0.48438l-0.64062 1.6719c-0.0625 0.17578-0.13672 0.29688-0.21875 0.35938-0.085938 0.070312-0.19922 0.10938-0.34375 0.10938h-0.28125v-0.32812h0.15625c0.082031 0 0.14062-0.015625 0.17188-0.046875 0.039063-0.023437 0.070313-0.070313 0.09375-0.14062l0.015625-0.03125z"/>
  </symbol>
  <symbol id="i" overflow="visible">
   <path d="m1.0781-1.25c0.082031 0 0.14453-0.015625 0.1875-0.046875 0.039063-0.039063 0.0625-0.097656 0.0625-0.17188 0-0.070312-0.023437-0.125-0.0625-0.15625-0.042969-0.039062-0.10547-0.0625-0.1875-0.0625h-0.29688v0.4375zm0.015625 0.89062c0.10156 0 0.17969-0.019531 0.23438-0.0625 0.050781-0.039063 0.078125-0.10938 0.078125-0.20312s-0.027344-0.16016-0.078125-0.20312c-0.054687-0.039063-0.13281-0.0625-0.23438-0.0625h-0.3125v0.53125zm0.48438-0.73438c0.11328 0.03125 0.20312 0.09375 0.26562 0.1875 0.0625 0.085938 0.09375 0.19531 0.09375 0.32812 0 0.1875-0.070312 0.33594-0.20312 0.4375-0.13672 0.09375-0.33984 0.14062-0.60938 0.14062h-0.875v-2.0312h0.79688c0.28125 0 0.48438 0.042969 0.60938 0.125 0.13281 0.085938 0.20312 0.21875 0.20312 0.40625 0 0.10547-0.027344 0.19531-0.078125 0.26562-0.042969 0.0625-0.10938 0.10938-0.20312 0.14062z"/>
  </symbol>
  <symbol id="v" overflow="visible">
   <path d="m0.23438-2.125h0.48438v2.125h-0.48438z"/>
  </symbol>
  <symbol id="h" overflow="visible">
   <path d="m0.23438-1.5312h0.48438v1.5312h-0.48438zm0-0.59375h0.48438v0.40625h-0.48438z"/>
  </symbol>
  <symbol id="u" overflow="visible">
   <path d="m1.4375-1.4844v0.375c-0.11719-0.039063-0.21875-0.070313-0.3125-0.09375-0.09375-0.019531-0.1875-0.03125-0.28125-0.03125-0.085938 0-0.15234 0.011719-0.20312 0.03125-0.042969 0.023437-0.0625 0.058594-0.0625 0.10938 0 0.03125 0.015625 0.058594 0.046875 0.078125 0.03125 0.023437 0.09375 0.039063 0.1875 0.046875l0.078125 0.015625c0.25 0.03125 0.41406 0.085937 0.5 0.15625 0.09375 0.074219 0.14062 0.1875 0.14062 0.34375 0 0.16797-0.0625 0.29297-0.1875 0.375-0.11719 0.082031-0.29297 0.125-0.53125 0.125-0.10547 0-0.21094-0.011719-0.3125-0.03125-0.10547-0.019531-0.21484-0.046875-0.32812-0.078125v-0.35938c0.09375 0.042969 0.19141 0.078125 0.29688 0.10938 0.10156 0.023438 0.20703 0.03125 0.3125 0.03125 0.09375 0 0.16016-0.007812 0.20312-0.03125 0.050781-0.03125 0.078125-0.070312 0.078125-0.125 0-0.050781-0.015625-0.085938-0.046875-0.10938-0.03125-0.019531-0.10156-0.035156-0.20312-0.046875h-0.078125c-0.21875-0.03125-0.375-0.082031-0.46875-0.15625-0.085937-0.070312-0.125-0.1875-0.125-0.34375s0.054687-0.26953 0.17188-0.34375c0.11328-0.082031 0.28516-0.125 0.51562-0.125 0.082031 0 0.17188 0.007812 0.26562 0.015625 0.10156 0.011719 0.21875 0.03125 0.34375 0.0625z"/>
  </symbol>
  <symbol id="t" overflow="visible">
   <path d="m1.6719-1.9688v0.42188c-0.11719-0.050781-0.22656-0.085937-0.32812-0.10938-0.10547-0.019531-0.20312-0.03125-0.29688-0.03125-0.125 0-0.21875 0.015625-0.28125 0.046875s-0.09375 0.085937-0.09375 0.15625c0 0.054687 0.019531 0.09375 0.0625 0.125 0.039063 0.03125 0.11328 0.058594 0.21875 0.078125l0.23438 0.046875c0.21875 0.054687 0.375 0.125 0.46875 0.21875 0.10156 0.085937 0.15625 0.21484 0.15625 0.39062 0 0.21875-0.070312 0.38672-0.20312 0.5-0.13672 0.11719-0.33984 0.17188-0.60938 0.17188-0.13672 0-0.27344-0.015625-0.40625-0.046875-0.125-0.019531-0.25-0.054688-0.375-0.10938v-0.4375c0.125 0.0625 0.25 0.11719 0.375 0.15625 0.125 0.03125 0.24219 0.046875 0.35938 0.046875 0.11328 0 0.19531-0.015625 0.25-0.046875 0.0625-0.039063 0.09375-0.097656 0.09375-0.17188 0-0.0625-0.023437-0.10938-0.0625-0.14062-0.042969-0.039063-0.12109-0.070313-0.23438-0.09375l-0.20312-0.046875c-0.21094-0.039062-0.35938-0.10938-0.45312-0.20312-0.09375-0.10156-0.14062-0.23438-0.14062-0.39062 0-0.20703 0.0625-0.36328 0.1875-0.46875 0.13281-0.11328 0.32812-0.17188 0.57812-0.17188 0.10156 0 0.21094 0.011719 0.32812 0.03125 0.125 0.011719 0.25 0.039063 0.375 0.078125z"/>
  </symbol>
  <symbol id="g" overflow="visible">
   <path d="m0.21875-0.59375v-0.9375h0.48438v0.15625 0.3125 0.25 0.26562c0.007813 0.054687 0.023437 0.089844 0.046875 0.10938 0.019531 0.042969 0.046875 0.074219 0.078125 0.09375 0.03125 0.011719 0.066406 0.015625 0.10938 0.015625 0.10156 0 0.17969-0.035156 0.23438-0.10938 0.0625-0.082031 0.09375-0.19531 0.09375-0.34375v-0.75h0.48438v1.5312h-0.48438v-0.21875c-0.074219 0.085938-0.15234 0.15234-0.23438 0.20312-0.085938 0.039062-0.17188 0.0625-0.26562 0.0625-0.17969 0-0.3125-0.050781-0.40625-0.15625-0.09375-0.11328-0.14062-0.27344-0.14062-0.48438z"/>
  </symbol>
  <symbol id="c" overflow="visible">
   <path d="m0.96875-1.2188c-0.11719 0-0.20312 0.042969-0.26562 0.125-0.054687 0.074219-0.078125 0.18359-0.078125 0.32812 0 0.14844 0.023438 0.26172 0.078125 0.34375 0.0625 0.074219 0.14844 0.10938 0.26562 0.10938 0.10156 0 0.17969-0.035156 0.23438-0.10938 0.0625-0.082031 0.09375-0.19531 0.09375-0.34375 0-0.14453-0.03125-0.25391-0.09375-0.32812-0.054687-0.082031-0.13281-0.125-0.23438-0.125zm0-0.34375c0.25781 0 0.46094 0.074219 0.60938 0.21875 0.14453 0.13672 0.21875 0.32812 0.21875 0.57812s-0.074219 0.44922-0.21875 0.59375c-0.14844 0.14844-0.35156 0.21875-0.60938 0.21875-0.27344 0-0.48047-0.070312-0.625-0.21875-0.14844-0.14453-0.21875-0.34375-0.21875-0.59375s0.070312-0.44141 0.21875-0.57812c0.14453-0.14453 0.35156-0.21875 0.625-0.21875z"/>
  </symbol>
  <symbol id="s" overflow="visible">
   <path d="m1.2344-2.125v0.32812h-0.26562c-0.0625 0-0.10938 0.011719-0.14062 0.03125-0.03125 0.023437-0.046875 0.0625-0.046875 0.125v0.10938h0.42188v0.34375h-0.42188v1.1875h-0.48438v-1.1875h-0.25v-0.34375h0.25v-0.10938c0-0.16406 0.046875-0.28516 0.14062-0.35938 0.09375-0.082031 0.23828-0.125 0.4375-0.125z"/>
  </symbol>
  <symbol id="r" overflow="visible">
   <path d="m1.6562-1.2812c0.0625-0.09375 0.13281-0.16016 0.21875-0.20312 0.082031-0.050781 0.17578-0.078125 0.28125-0.078125 0.17578 0 0.30469 0.058594 0.39062 0.17188 0.09375 0.10547 0.14062 0.25781 0.14062 0.45312v0.9375h-0.48438v-0.79688-0.03125-0.0625c0-0.10156-0.015625-0.17969-0.046875-0.23438-0.03125-0.050781-0.085938-0.078125-0.15625-0.078125-0.09375 0-0.16797 0.042969-0.21875 0.125-0.042969 0.074219-0.070312 0.18359-0.078125 0.32812v0.75h-0.48438v-0.79688c0-0.16406-0.015625-0.27344-0.046875-0.32812-0.03125-0.050781-0.085937-0.078125-0.15625-0.078125-0.09375 0-0.16797 0.042969-0.21875 0.125-0.054687 0.074219-0.078125 0.18359-0.078125 0.32812v0.75h-0.48438v-1.5312h0.48438v0.21875c0.0625-0.082031 0.12891-0.14453 0.20312-0.1875 0.082031-0.039062 0.17188-0.0625 0.26562-0.0625 0.10156 0 0.19531 0.027344 0.28125 0.078125 0.082031 0.054687 0.14453 0.12109 0.1875 0.20312z"/>
  </symbol>
  <symbol id="q" overflow="visible">
   <path d="m1.7656-0.9375v0.9375h-0.48438v-0.70312c0-0.13281-0.007812-0.22656-0.015625-0.28125 0-0.050781-0.011719-0.085937-0.03125-0.10938-0.011719-0.03125-0.039063-0.054688-0.078125-0.078125-0.03125-0.019531-0.070312-0.03125-0.10938-0.03125-0.09375 0-0.17188 0.042969-0.23438 0.125-0.0625 0.074219-0.09375 0.18359-0.09375 0.32812v0.75h-0.48438v-2.125h0.48438v0.8125c0.070312-0.082031 0.14844-0.14453 0.23438-0.1875 0.082031-0.039062 0.17578-0.0625 0.28125-0.0625 0.17578 0 0.30469 0.058594 0.39062 0.17188 0.09375 0.10547 0.14062 0.25781 0.14062 0.45312z"/>
  </symbol>
  <symbol id="p" overflow="visible">
   <path d="m0.25-2.0312h0.59375l0.73438 1.3906v-1.3906h0.5v2.0312h-0.57812l-0.75-1.4062v1.4062h-0.5z"/>
  </symbol>
  <symbol id="o" overflow="visible">
   <path d="m1.7656-0.9375v0.9375h-0.48438v-0.71875c0-0.125-0.007812-0.21094-0.015625-0.26562 0-0.050781-0.011719-0.085937-0.03125-0.10938-0.011719-0.03125-0.039063-0.054688-0.078125-0.078125-0.03125-0.019531-0.070312-0.03125-0.10938-0.03125-0.09375 0-0.17188 0.042969-0.23438 0.125-0.0625 0.074219-0.09375 0.18359-0.09375 0.32812v0.75h-0.48438v-1.5312h0.48438v0.21875c0.070312-0.082031 0.14844-0.14453 0.23438-0.1875 0.082031-0.039062 0.17578-0.0625 0.28125-0.0625 0.17578 0 0.30469 0.058594 0.39062 0.17188 0.09375 0.10547 0.14062 0.25781 0.14062 0.45312z"/>
  </symbol>
  <symbol id="n" overflow="visible">
   <path d="m0.25-2.0312h0.875c0.25781 0 0.45703 0.058594 0.59375 0.17188 0.14453 0.11719 0.21875 0.27734 0.21875 0.48438 0 0.21875-0.074219 0.38672-0.21875 0.5-0.13672 0.11719-0.33594 0.17188-0.59375 0.17188h-0.34375v0.70312h-0.53125zm0.53125 0.375v0.5625h0.29688c0.09375 0 0.16406-0.019531 0.21875-0.0625 0.0625-0.050781 0.09375-0.125 0.09375-0.21875s-0.03125-0.16016-0.09375-0.20312c-0.054687-0.050781-0.125-0.078125-0.21875-0.078125z"/>
  </symbol>
  <symbol id="m" overflow="visible">
   <path d="m0.23438-1.5312h0.48438v1.5c0 0.20703-0.054688 0.36328-0.15625 0.46875-0.09375 0.11328-0.23047 0.17188-0.40625 0.17188h-0.25v-0.32812h0.078125c0.09375 0 0.15625-0.023438 0.1875-0.0625 0.039063-0.042969 0.0625-0.125 0.0625-0.25zm0-0.59375h0.48438v0.40625h-0.48438z"/>
  </symbol>
  <symbol id="l" overflow="visible">
   <path d="m1.4688-1.4844v0.40625c-0.0625-0.050781-0.13281-0.085937-0.20312-0.10938-0.0625-0.019531-0.13281-0.03125-0.20312-0.03125-0.13672 0-0.24609 0.042969-0.32812 0.125-0.074219 0.074219-0.10938 0.18359-0.10938 0.32812 0 0.14844 0.035156 0.26172 0.10938 0.34375 0.082031 0.074219 0.19141 0.10938 0.32812 0.10938 0.070312 0 0.14453-0.007812 0.21875-0.03125 0.070312-0.019531 0.13281-0.050781 0.1875-0.09375v0.39062c-0.074219 0.03125-0.15234 0.050781-0.23438 0.0625-0.074219 0.019531-0.15234 0.03125-0.23438 0.03125-0.27344 0-0.48438-0.070312-0.64062-0.21875-0.15625-0.14453-0.23438-0.34375-0.23438-0.59375s0.078125-0.44141 0.23438-0.57812c0.15625-0.14453 0.36719-0.21875 0.64062-0.21875 0.082031 0 0.16016 0.007812 0.23438 0.015625 0.082031 0.011719 0.16016 0.03125 0.23438 0.0625z"/>
  </symbol>
 </defs>
 <g>
  <path d="m203.37 44.934c-61.707 7.4023-111.93 53.016-125.14 113.65-3.0078 13.523-3.5391 39.711-1.0742 52.051 4.7227 23.934 15.238 44.969 34.77 69.223 9.4492 11.812 230.32 232.79 234.4 234.61 7.7266 3.3281 2.3633 8.2656 120.52-109.47 110.75-110.23 120.63-120.42 129.43-132.01 24.148-31.875 33.48-74.586 25.117-115.37-8.6914-42.5-36.922-79.738-74.91-98.738-9.5547-4.8281-26.938-10.41-38.316-12.449-12.344-2.1445-36.703-2.1445-48.832-0.10547-14.055 2.4688-27.367 6.6523-39.602 12.555-18.457 8.6914-27.688 15.668-49.797 37.348l-20.18 19.855-4.5078-4.2969c-28.441-26.938-35.953-33.27-49.906-42.605-17.168-11.484-35.527-19.426-52.484-22.645-11.371-2.1445-29.078-2.8984-39.488-1.6094zm28.977 23.609c20.281 2.4688 40.461 10.516 56.453 22.645 4.9375 3.7578 19.641 17.277 32.73 30.051 23.289 22.965 23.934 23.398 28.332 23.398 2.4688 0 5.4727-0.53906 6.7578-1.1797 1.2891-0.64453 13.199-11.91 26.512-25.117 13.305-13.094 27.043-25.762 30.586-28.117 13.418-9.0156 30.906-16.312 47.227-19.852 8.3711-1.7188 35.738-1.7188 44.004 0 59.137 12.773 97.77 62.57 94.656 122.02-1.1797 21.895-9.4414 44.969-22.32 62.25-3.1133 4.0781-55.914 57.848-117.3 119.45l-111.72 111.83-109.59-109.69c-93.043-93.262-110.43-111.18-115.48-118.91-7.7266-11.805-12.016-20.387-15.879-31.98-14.273-43.141-4.2969-90.578 25.648-121.81 25.539-26.617 62.246-39.496 99.379-34.988z"/>
  <use x="70" y="568.398438" xlink:href="#w"/>
  <use x="72.054688" y="568.398438" xlink:href="#d"/>
  <use x="73.4375" y="568.398438" xlink:href="#a"/>
  <use x="75.335938" y="568.398438" xlink:href="#f"/>
  <use x="77.222656" y="568.398438" xlink:href="#b"/>
  <use x="78.5625" y="568.398438" xlink:href="#a"/>
  <use x="80.460938" y="568.398438" xlink:href="#e"/>
  <use x="83.441406" y="568.398438" xlink:href="#k"/>
  <use x="85.445312" y="568.398438" xlink:href="#j"/>
  <use x="88.246094" y="568.398438" xlink:href="#i"/>
  <use x="90.378906" y="568.398438" xlink:href="#v"/>
  <use x="91.339844" y="568.398438" xlink:href="#f"/>
  <use x="93.226562" y="568.398438" xlink:href="#h"/>
  <use x="94.1875" y="568.398438" xlink:href="#u"/>
  <use x="95.855469" y="568.398438" xlink:href="#a"/>
  <use x="98.730469" y="568.398438" xlink:href="#t"/>
  <use x="100.746094" y="568.398438" xlink:href="#b"/>
  <use x="102.082031" y="568.398438" xlink:href="#g"/>
  <use x="104.078125" y="568.398438" xlink:href="#e"/>
  <use x="106.082031" y="568.398438" xlink:href="#h"/>
  <use x="107.042969" y="568.398438" xlink:href="#c"/>
  <use x="70" y="571.199219" xlink:href="#s"/>
  <use x="71.21875" y="571.199219" xlink:href="#d"/>
  <use x="72.597656" y="571.199219" xlink:href="#c"/>
  <use x="74.523438" y="571.199219" xlink:href="#r"/>
  <use x="78.414063" y="571.199219" xlink:href="#b"/>
  <use x="79.753906" y="571.199219" xlink:href="#q"/>
  <use x="81.746094" y="571.199219" xlink:href="#a"/>
  <use x="84.621094" y="571.199219" xlink:href="#p"/>
  <use x="86.964844" y="571.199219" xlink:href="#c"/>
  <use x="88.886719" y="571.199219" xlink:href="#g"/>
  <use x="90.882812" y="571.199219" xlink:href="#o"/>
  <use x="93.847656" y="571.199219" xlink:href="#n"/>
  <use x="95.902344" y="571.199219" xlink:href="#d"/>
  <use x="97.28125" y="571.199219" xlink:href="#c"/>
  <use x="99.207031" y="571.199219" xlink:href="#m"/>
  <use x="100.164062" y="571.199219" xlink:href="#a"/>
  <use x="102.066406" y="571.199219" xlink:href="#l"/>
  <use x="103.722656" y="571.199219" xlink:href="#b"/>
 </g>
</svg>
