<?xml version="1.0" encoding="UTF-8"?>
<svg width="700pt" height="700pt" version="1.1" viewBox="0 0 700 700" xmlns="http://www.w3.org/2000/svg" xmlns:xlink="http://www.w3.org/1999/xlink">
 <defs>
  <symbol id="v" overflow="visible">
   <path d="m19.547-1.1719c-1.0117 0.52344-2.0625 0.91406-3.1562 1.1719-1.0938 0.26953-2.2344 0.40625-3.4219 0.40625-3.543 0-6.3516-0.98828-8.4219-2.9688-2.0625-1.9766-3.0938-4.6602-3.0938-8.0469 0-3.4062 1.0312-6.0977 3.0938-8.0781 2.0703-1.9766 4.8789-2.9688 8.4219-2.9688 1.1875 0 2.3281 0.13672 3.4219 0.40625 1.0938 0.26172 2.1445 0.65625 3.1562 1.1875v4.3906c-1.0234-0.6875-2.0273-1.1914-3.0156-1.5156-0.98047-0.32031-2.0156-0.48438-3.1094-0.48438-1.9609 0-3.5 0.625-4.625 1.875-1.1172 1.25-1.6719 2.9805-1.6719 5.1875 0 2.1875 0.55469 3.9141 1.6719 5.1719 1.125 1.25 2.6641 1.875 4.625 1.875 1.0938 0 2.1289-0.16016 3.1094-0.48438 0.98828-0.32031 1.9922-0.82812 3.0156-1.5156z"/>
  </symbol>
  <symbol id="d" overflow="visible">
   <path d="m14.297-11.609c-0.44922-0.20703-0.89062-0.35938-1.3281-0.45312-0.4375-0.10156-0.88281-0.15625-1.3281-0.15625-1.3125 0-2.3242 0.42188-3.0312 1.2656-0.71094 0.83594-1.0625 2.0391-1.0625 3.6094v7.3438h-5.0938v-15.953h5.0938v2.625c0.65625-1.0508 1.4062-1.8164 2.25-2.2969 0.85156-0.47656 1.875-0.71875 3.0625-0.71875 0.17578 0 0.36328 0.011719 0.5625 0.03125 0.19531 0.011719 0.48438 0.042969 0.85938 0.09375z"/>
  </symbol>
  <symbol id="b" overflow="visible">
   <path d="m18.375-8.0156v1.4531h-11.922c0.125 1.1992 0.55469 2.0938 1.2969 2.6875 0.73828 0.59375 1.7734 0.89062 3.1094 0.89062 1.0703 0 2.1719-0.15625 3.2969-0.46875 1.125-0.32031 2.2812-0.80469 3.4688-1.4531v3.9375c-1.2109 0.46094-2.418 0.80469-3.625 1.0312-1.2109 0.22656-2.4141 0.34375-3.6094 0.34375-2.8984 0-5.1484-0.72656-6.75-2.1875-1.5938-1.4688-2.3906-3.5312-2.3906-6.1875 0-2.5938 0.78516-4.6328 2.3594-6.125 1.5703-1.5 3.7344-2.25 6.4844-2.25 2.5078 0 4.5156 0.75781 6.0156 2.2656 1.5078 1.5117 2.2656 3.5312 2.2656 6.0625zm-5.2344-1.7031c0-0.96875-0.28906-1.75-0.85938-2.3438-0.5625-0.59375-1.2969-0.89062-2.2031-0.89062-0.99219 0-1.7969 0.28125-2.4219 0.84375-0.61719 0.55469-0.99609 1.3516-1.1406 2.3906z"/>
  </symbol>
  <symbol id="h" overflow="visible">
   <path d="m9.5938-7.1719c-1.0625 0-1.8672 0.18359-2.4062 0.54688-0.53125 0.35547-0.79688 0.88281-0.79688 1.5781 0 0.64844 0.21094 1.1523 0.64062 1.5156 0.4375 0.36719 1.0391 0.54688 1.8125 0.54688 0.95703 0 1.7656-0.34375 2.4219-1.0312s0.98438-1.5469 0.98438-2.5781v-0.57812zm7.7969-1.9375v9.1094h-5.1406v-2.3594c-0.6875 0.96875-1.4609 1.6719-2.3125 2.1094-0.85547 0.4375-1.8906 0.65625-3.1094 0.65625-1.6562 0-3-0.47656-4.0312-1.4375-1.0312-0.96875-1.5469-2.2188-1.5469-3.75 0-1.875 0.64062-3.25 1.9219-4.125 1.2891-0.875 3.3164-1.3125 6.0781-1.3125h3v-0.39062c0-0.8125-0.32031-1.4062-0.95312-1.7812-0.63672-0.375-1.6328-0.5625-2.9844-0.5625-1.0859 0-2.1016 0.10938-3.0469 0.32812-0.9375 0.21875-1.8086 0.54688-2.6094 0.98438v-3.8906c1.082-0.25781 2.1758-0.45703 3.2812-0.59375 1.1016-0.14453 2.207-0.21875 3.3125-0.21875 2.875 0 4.9453 0.57031 6.2188 1.7031 1.2812 1.1367 1.9219 2.9805 1.9219 5.5312z"/>
  </symbol>
  <symbol id="a" overflow="visible">
   <path d="m8.0156-20.484v4.5312h5.2656v3.6406h-5.2656v6.7656c0 0.74219 0.14453 1.2461 0.4375 1.5156 0.30078 0.26172 0.89062 0.39062 1.7656 0.39062h2.6094v3.6406h-4.3594c-2.0234 0-3.4531-0.41406-4.2969-1.25-0.83594-0.84375-1.25-2.2734-1.25-4.2969v-6.7656h-2.5312v-3.6406h2.5312v-4.5312z"/>
  </symbol>
  <symbol id="g" overflow="visible">
   <path d="m13.297-13.625v-8.5312h5.1406v22.156h-5.1406v-2.3125c-0.69922 0.94922-1.4688 1.6406-2.3125 2.0781-0.84375 0.42578-1.8242 0.64062-2.9375 0.64062-1.9688 0-3.5859-0.77344-4.8438-2.3281-1.2617-1.5625-1.8906-3.5781-1.8906-6.0469 0-2.457 0.62891-4.4688 1.8906-6.0312 1.2578-1.5625 2.875-2.3438 4.8438-2.3438 1.1016 0 2.0781 0.22656 2.9219 0.67188 0.85156 0.4375 1.6289 1.1211 2.3281 2.0469zm-3.3594 10.328c1.0938 0 1.9258-0.39453 2.5-1.1875 0.57031-0.80078 0.85938-1.9609 0.85938-3.4844 0-1.5078-0.28906-2.6641-0.85938-3.4688-0.57422-0.80078-1.4062-1.2031-2.5-1.2031-1.0859 0-1.9141 0.40234-2.4844 1.2031-0.57422 0.80469-0.85938 1.9609-0.85938 3.4688 0 1.5234 0.28516 2.6836 0.85938 3.4844 0.57031 0.79297 1.3984 1.1875 2.4844 1.1875z"/>
  </symbol>
  <symbol id="c" overflow="visible">
   <path d="m10.938-3.2969c1.0938 0 1.9258-0.39453 2.5-1.1875 0.57031-0.80078 0.85938-1.9609 0.85938-3.4844 0-1.5078-0.28906-2.6641-0.85938-3.4688-0.57422-0.80078-1.4062-1.2031-2.5-1.2031s-1.9336 0.40234-2.5156 1.2031c-0.58594 0.80469-0.875 1.9609-0.875 3.4688 0 1.5117 0.28906 2.668 0.875 3.4688 0.58203 0.80469 1.4219 1.2031 2.5156 1.2031zm-3.3906-10.328c0.70703-0.92578 1.4883-1.6094 2.3438-2.0469 0.85156-0.44531 1.832-0.67188 2.9375-0.67188 1.9688 0 3.582 0.78125 4.8438 2.3438 1.2695 1.5625 1.9062 3.5742 1.9062 6.0312 0 2.4688-0.63672 4.4844-1.9062 6.0469-1.2617 1.5547-2.875 2.3281-4.8438 2.3281-1.1055 0-2.0859-0.21875-2.9375-0.65625-0.85547-0.4375-1.6367-1.125-2.3438-2.0625v2.3125h-5.0938v-22.156h5.0938z"/>
  </symbol>
  <symbol id="l" overflow="visible">
   <path d="m0.35938-15.953h5.0938l4.2969 10.828 3.6406-10.828h5.0938l-6.7031 17.469c-0.67969 1.7695-1.4648 3.0078-2.3594 3.7188-0.89844 0.70703-2.0781 1.0625-3.5469 1.0625h-2.9531v-3.3438h1.5938c0.86328 0 1.4922-0.14062 1.8906-0.42188 0.39453-0.27344 0.70312-0.76562 0.92188-1.4844l0.14062-0.4375z"/>
  </symbol>
  <symbol id="k" overflow="visible">
   <path d="m15.578-3.875h-8.5625l-1.3594 3.875h-5.5156l7.875-21.266h6.5469l7.875 21.266h-5.5156zm-7.2031-3.9375h5.8281l-2.9062-8.4688z"/>
  </symbol>
  <symbol id="f" overflow="visible">
   <path d="m2.2812-6.2031v-9.75h5.125v1.5938c0 0.86719-0.007812 1.9531-0.015625 3.2656-0.011719 1.3047-0.015625 2.1719-0.015625 2.6094 0 1.2812 0.03125 2.2031 0.09375 2.7656 0.070312 0.5625 0.1875 0.97656 0.34375 1.2344 0.21875 0.33594 0.49219 0.58984 0.82812 0.76562 0.33203 0.17969 0.71875 0.26562 1.1562 0.26562 1.0625 0 1.8945-0.40625 2.5-1.2188 0.61328-0.8125 0.92188-1.9453 0.92188-3.4062v-7.875h5.0938v15.953h-5.0938v-2.3125c-0.77344 0.9375-1.5898 1.625-2.4531 2.0625-0.85547 0.4375-1.7969 0.65625-2.8281 0.65625-1.8438 0-3.25-0.5625-4.2188-1.6875-0.96094-1.1328-1.4375-2.7734-1.4375-4.9219z"/>
  </symbol>
  <symbol id="j" overflow="visible">
   <path d="m2.4531-22.156h5.0938v22.156h-5.0938z"/>
  </symbol>
  <symbol id="u" overflow="visible">
   <path d="m2.6719-21.266h6.9844l4.8438 11.375 4.875-11.375h6.9688v21.266h-5.1875v-15.547l-4.9062 11.453h-3.4688l-4.9062-11.453v15.547h-5.2031z"/>
  </symbol>
  <symbol id="i" overflow="visible">
   <path d="m18.484-9.7188v9.7188h-5.125v-7.4062c0-1.3945-0.03125-2.3516-0.09375-2.875-0.0625-0.51953-0.16797-0.90625-0.3125-1.1562-0.19922-0.33203-0.46875-0.58594-0.8125-0.76562-0.34375-0.1875-0.73438-0.28125-1.1719-0.28125-1.0625 0-1.9023 0.41406-2.5156 1.2344-0.60547 0.8125-0.90625 1.9492-0.90625 3.4062v7.8438h-5.0938v-22.156h5.0938v8.5312c0.76953-0.92578 1.5859-1.6094 2.4531-2.0469 0.86328-0.44531 1.8164-0.67188 2.8594-0.67188 1.8438 0 3.2383 0.57031 4.1875 1.7031 0.95703 1.125 1.4375 2.7656 1.4375 4.9219z"/>
  </symbol>
  <symbol id="t" overflow="visible">
   <path d="m2.4531-15.953h5.0938v15.953h-5.0938zm0-6.2031h5.0938v4.1562h-5.0938z"/>
  </symbol>
  <symbol id="s" overflow="visible">
   <path d="m12.953-22.156v3.3438h-2.8281c-0.71875 0-1.2266 0.13281-1.5156 0.39062-0.28125 0.26172-0.42188 0.71484-0.42188 1.3594v1.1094h4.3594v3.6406h-4.3594v12.312h-5.0938v-12.312h-2.5312v-3.6406h2.5312v-1.1094c0-1.7383 0.48438-3.0195 1.4531-3.8438 0.96875-0.83203 2.4688-1.25 4.5-1.25z"/>
  </symbol>
  <symbol id="e" overflow="visible">
   <path d="m10.047-12.688c-1.1367 0-2 0.40625-2.5938 1.2188s-0.89062 1.9805-0.89062 3.5c0 1.5312 0.29688 2.7031 0.89062 3.5156s1.457 1.2188 2.5938 1.2188c1.1016 0 1.9453-0.40625 2.5312-1.2188 0.59375-0.8125 0.89062-1.9844 0.89062-3.5156 0-1.5195-0.29688-2.6875-0.89062-3.5-0.58594-0.8125-1.4297-1.2188-2.5312-1.2188zm0-3.6562c2.7383 0 4.8789 0.74609 6.4219 2.2344 1.5391 1.4805 2.3125 3.5273 2.3125 6.1406 0 2.625-0.77344 4.6797-2.3125 6.1562-1.543 1.4805-3.6836 2.2188-6.4219 2.2188-2.7617 0-4.918-0.73828-6.4688-2.2188-1.5547-1.4766-2.3281-3.5312-2.3281-6.1562 0-2.6133 0.77344-4.6602 2.3281-6.1406 1.5508-1.4883 3.707-2.2344 6.4688-2.2344z"/>
  </symbol>
  <symbol id="r" overflow="visible">
   <path d="m17.234-13.297c0.64453-0.98828 1.4102-1.7422 2.2969-2.2656 0.89453-0.51953 1.875-0.78125 2.9375-0.78125 1.832 0 3.2266 0.57031 4.1875 1.7031 0.95703 1.125 1.4375 2.7656 1.4375 4.9219v9.7188h-5.125v-8.3125-0.39062c0.007812-0.13281 0.015625-0.32031 0.015625-0.5625 0-1.1328-0.16797-1.9531-0.5-2.4531-0.32422-0.50781-0.85938-0.76562-1.6094-0.76562-0.96875 0-1.7188 0.40234-2.25 1.2031-0.52344 0.79297-0.79297 1.9453-0.8125 3.4531v7.8281h-5.125v-8.3125c0-1.7695-0.15234-2.9062-0.45312-3.4062-0.30469-0.50781-0.84375-0.76562-1.625-0.76562-0.98047 0-1.7344 0.40234-2.2656 1.2031-0.53125 0.80469-0.79688 1.9492-0.79688 3.4375v7.8438h-5.125v-15.953h5.125v2.3281c0.625-0.89453 1.3438-1.5703 2.1562-2.0312 0.8125-0.45703 1.707-0.6875 2.6875-0.6875 1.1016 0 2.0781 0.26562 2.9219 0.79688s1.4844 1.2812 1.9219 2.25z"/>
  </symbol>
  <symbol id="q" overflow="visible">
   <path d="m2.6719-21.266h6.125l7.7344 14.578v-14.578h5.2031v21.266h-6.125l-7.7344-14.594v14.594h-5.2031z"/>
  </symbol>
  <symbol id="p" overflow="visible">
   <path d="m18.484-9.7188v9.7188h-5.125v-7.4375c0-1.375-0.03125-2.3203-0.09375-2.8438-0.0625-0.51953-0.16797-0.90625-0.3125-1.1562-0.19922-0.33203-0.46875-0.58594-0.8125-0.76562-0.34375-0.1875-0.73438-0.28125-1.1719-0.28125-1.0625 0-1.9023 0.41406-2.5156 1.2344-0.60547 0.8125-0.90625 1.9492-0.90625 3.4062v7.8438h-5.0938v-15.953h5.0938v2.3281c0.76953-0.92578 1.5859-1.6094 2.4531-2.0469 0.86328-0.44531 1.8164-0.67188 2.8594-0.67188 1.8438 0 3.2383 0.57031 4.1875 1.7031 0.95703 1.125 1.4375 2.7656 1.4375 4.9219z"/>
  </symbol>
  <symbol id="o" overflow="visible">
   <path d="m2.6719-21.266h9.1094c2.707 0 4.7852 0.60547 6.2344 1.8125 1.4453 1.1992 2.1719 2.9062 2.1719 5.125 0 2.2305-0.72656 3.9492-2.1719 5.1562-1.4492 1.1992-3.5273 1.7969-6.2344 1.7969h-3.625v7.375h-5.4844zm5.4844 3.9688v5.9375h3.0469c1.0625 0 1.8789-0.25391 2.4531-0.76562 0.58203-0.51953 0.875-1.2539 0.875-2.2031 0-0.94531-0.29297-1.6758-0.875-2.1875-0.57422-0.51953-1.3906-0.78125-2.4531-0.78125z"/>
  </symbol>
  <symbol id="n" overflow="visible">
   <path d="m2.4531-15.953h5.0938v15.672c0 2.1328-0.51562 3.7656-1.5469 4.8906-1.0234 1.125-2.5078 1.6875-4.4531 1.6875h-2.5156v-3.3438h0.89062c0.96875 0 1.6289-0.21875 1.9844-0.65625 0.36328-0.4375 0.54688-1.2969 0.54688-2.5781zm0-6.2031h5.0938v4.1562h-5.0938z"/>
  </symbol>
  <symbol id="m" overflow="visible">
   <path d="m15.344-15.453v4.1562c-0.69922-0.46875-1.3984-0.81641-2.0938-1.0469-0.69922-0.22656-1.4219-0.34375-2.1719-0.34375-1.4297 0-2.5391 0.41797-3.3281 1.25-0.79297 0.82422-1.1875 1.9805-1.1875 3.4688 0 1.5 0.39453 2.668 1.1875 3.5 0.78906 0.82422 1.8984 1.2344 3.3281 1.2344 0.80078 0 1.5547-0.11719 2.2656-0.35938 0.71875-0.23828 1.3828-0.58594 2-1.0469v4.1719c-0.80469 0.29297-1.6172 0.50781-2.4375 0.65625-0.8125 0.14453-1.6367 0.21875-2.4688 0.21875-2.875 0-5.125-0.73438-6.75-2.2031-1.625-1.4766-2.4375-3.5352-2.4375-6.1719 0-2.625 0.8125-4.6758 2.4375-6.1562 1.625-1.4766 3.875-2.2188 6.75-2.2188 0.83203 0 1.6562 0.078125 2.4688 0.23438 0.8125 0.14844 1.625 0.36719 2.4375 0.65625z"/>
  </symbol>
 </defs>
 <g>
  <path d="m560 99.168h-35.699v-13.594c-0.011719-4.1367-1.668-8.0977-4.5977-11.02-2.9297-2.918-6.8984-4.5586-11.035-4.5547h-2.3359c-4.1367-0.003906-8.1055 1.6367-11.035 4.5547-2.9297 2.9219-4.5859 6.8828-4.5977 11.02v13.594h-71.398v-13.594c-0.011719-4.1367-1.668-8.0977-4.5977-11.02-2.9297-2.918-6.8984-4.5586-11.035-4.5547h-2.3359c-4.1367-0.003906-8.1055 1.6367-11.035 4.5547-2.9297 2.9219-4.5859 6.8828-4.5977 11.02v13.594h-71.398v-13.594c-0.011719-4.1367-1.668-8.0977-4.5977-11.02-2.9297-2.918-6.8984-4.5586-11.035-4.5547h-2.3359c-4.1367-0.003906-8.1055 1.6367-11.035 4.5547-2.9297 2.9219-4.5859 6.8828-4.5977 11.02v13.594h-71.398v-13.594c-0.011719-4.1367-1.668-8.0977-4.5977-11.02-2.9297-2.918-6.8984-4.5586-11.035-4.5547h-2.3359c-4.1367-0.003906-8.1055 1.6367-11.035 4.5547-2.9297 2.9219-4.5859 6.8828-4.5977 11.02v13.594h-35.699c-7.7344 0.007812-15.145 3.082-20.613 8.5508s-8.543 12.883-8.5547 20.613v347.29c0.015625 11.547 4.6055 22.613 12.77 30.777 8.1641 8.1641 19.234 12.754 30.781 12.77h391.23c11.547-0.015625 22.617-4.6055 30.781-12.77 8.1641-8.1641 12.754-19.23 12.77-30.777v-347.29c-0.011719-7.7305-3.0859-15.145-8.5547-20.613s-12.879-8.543-20.613-8.5508zm-36.469 41.746c0.003906 0.18359 0.007812 0.36328 0.007812 0.54297h0.003907c0 5.7344-3.0586 11.027-8.0234 13.895-4.9609 2.8633-11.078 2.8633-16.039 0-4.9648-2.8672-8.0234-8.1602-8.0234-13.895 0-0.18359 0.003907-0.36328 0.007813-0.54297 0.085937 0.25781 0.21484 0.49609 0.3125 0.74609 0.11719 0.30078 0.23828 0.59766 0.37109 0.89062h0.003906c0.27734 0.59375 0.58984 1.168 0.9375 1.7227 0.14453 0.23437 0.26953 0.46875 0.42578 0.69141l0.003906 0.003906c0.51953 0.75391 1.1055 1.4609 1.75 2.1094 0.050781 0.050781 0.11328 0.089844 0.16406 0.14062v0.003906c0.60547 0.58594 1.2578 1.1211 1.9492 1.6016 0.24219 0.16797 0.5 0.3125 0.75 0.46484l-0.003906 0.003907c0.54297 0.33594 1.1016 0.63672 1.6797 0.90625 0.29688 0.13672 0.59375 0.26562 0.90234 0.38281 0.60937 0.23438 1.2344 0.42578 1.8672 0.57812 0.29297 0.070313 0.57031 0.16016 0.86719 0.21484 0.95313 0.1875 1.918 0.28516 2.8867 0.29297h2.3359c0.96875-0.007813 1.9336-0.10547 2.8867-0.29297 0.29687-0.054688 0.57812-0.14062 0.86719-0.21484h-0.003906c0.63672-0.15234 1.2578-0.34766 1.8672-0.57812 0.30859-0.11719 0.60547-0.24609 0.90234-0.38281 0.57812-0.26953 1.1406-0.57031 1.6797-0.91016 0.25-0.15625 0.50781-0.29687 0.75-0.46484 0.69141-0.48047 1.3398-1.0156 1.9453-1.6016 0.050781-0.050781 0.11328-0.089844 0.16406-0.14062l0.003907-0.003906c0.64453-0.65234 1.2266-1.3594 1.75-2.1133 0.15625-0.22266 0.28125-0.46094 0.42578-0.6875h-0.003906c0.35156-0.55469 0.66406-1.1328 0.94141-1.7266 0.13281-0.29297 0.25391-0.58984 0.37109-0.89062 0.10156-0.25 0.23438-0.48828 0.31641-0.74609zm-21.164-55.34c0.042968-2.1641 1.8008-3.8945 3.9648-3.9062h2.3359c2.1641 0.011719 3.9219 1.7422 3.9648 3.9062v50.516c-0.042968 2.1641-1.8008 3.8984-3.9648 3.9102h-2.3359c-2.1641-0.011719-3.9219-1.7461-3.9648-3.9102zm-83.836 55.34c0.003906 0.18359 0.007812 0.36328 0.007812 0.54297h0.003907c0 5.7344-3.0586 11.027-8.0234 13.895-4.9609 2.8633-11.078 2.8633-16.039 0-4.9648-2.8672-8.0234-8.1602-8.0234-13.895 0-0.18359 0.003907-0.36328 0.007813-0.54297 0.085937 0.25781 0.21484 0.49609 0.3125 0.74609 0.11719 0.30078 0.23828 0.59766 0.37109 0.89062h0.003906c0.27734 0.59375 0.58984 1.168 0.9375 1.7227 0.14453 0.23437 0.26953 0.46875 0.42578 0.69141l0.003906 0.003906c0.51953 0.75391 1.1055 1.4609 1.75 2.1094 0.050781 0.050781 0.11328 0.089844 0.16406 0.14062v0.003906c0.60547 0.58594 1.2578 1.1211 1.9492 1.6016 0.24219 0.16797 0.5 0.3125 0.75 0.46484l-0.003906 0.003907c0.54297 0.33594 1.1016 0.63672 1.6797 0.90625 0.29688 0.13672 0.59375 0.26562 0.90234 0.38281 0.60937 0.23438 1.2344 0.42578 1.8672 0.57812 0.29297 0.070313 0.57031 0.16016 0.86719 0.21484 0.95313 0.1875 1.918 0.28516 2.8867 0.29297h2.3359c0.96875-0.007813 1.9336-0.10547 2.8867-0.29297 0.29687-0.054688 0.57812-0.14062 0.86719-0.21484h-0.003906c0.63672-0.15234 1.2578-0.34766 1.8672-0.57812 0.30859-0.11719 0.60547-0.24609 0.90234-0.38281 0.57812-0.26953 1.1406-0.57031 1.6797-0.91016 0.25-0.15625 0.50781-0.29687 0.75-0.46484 0.69141-0.48047 1.3398-1.0156 1.9453-1.6016 0.050781-0.050781 0.11328-0.089844 0.16406-0.14062l0.003907-0.003906c0.64453-0.65234 1.2266-1.3594 1.75-2.1133 0.15625-0.22266 0.28125-0.46094 0.42578-0.6875h-0.003906c0.35156-0.55469 0.66406-1.1328 0.94141-1.7266 0.13281-0.29297 0.25391-0.58984 0.37109-0.89062 0.10156-0.25 0.23438-0.48828 0.31641-0.74609zm-21.164-55.34c0.042968-2.1641 1.8008-3.8945 3.9648-3.9062h2.3359c2.1641 0.011719 3.9219 1.7422 3.9648 3.9062v50.516c-0.042968 2.1641-1.8008 3.8984-3.9648 3.9102h-2.3359c-2.1641-0.011719-3.9219-1.7461-3.9648-3.9102zm-83.836 55.34c0.003906 0.18359 0.007812 0.36328 0.007812 0.54297h0.003907c0 5.7344-3.0586 11.027-8.0234 13.895-4.9609 2.8633-11.078 2.8633-16.039 0-4.9648-2.8672-8.0234-8.1602-8.0234-13.895 0-0.18359 0.003907-0.36328 0.007813-0.54297 0.085937 0.25781 0.21484 0.49609 0.3125 0.74609 0.11719 0.30078 0.23828 0.59766 0.37109 0.89062h0.003906c0.27734 0.59375 0.58984 1.168 0.9375 1.7227 0.14453 0.23437 0.26953 0.46875 0.42578 0.69141l0.003906 0.003906c0.51953 0.75391 1.1055 1.4609 1.75 2.1094 0.050781 0.050781 0.11328 0.089844 0.16406 0.14062v0.003906c0.60547 0.58594 1.2578 1.1211 1.9492 1.6016 0.24219 0.16797 0.5 0.3125 0.75 0.46484l-0.003906 0.003907c0.54297 0.33594 1.1016 0.63672 1.6797 0.90625 0.29688 0.13672 0.59375 0.26562 0.90234 0.38281 0.60937 0.23438 1.2344 0.42578 1.8672 0.57812 0.29297 0.070313 0.57031 0.16016 0.86719 0.21484 0.95313 0.1875 1.918 0.28516 2.8867 0.29297h2.3359c0.96875-0.007813 1.9336-0.10547 2.8867-0.29297 0.29687-0.054688 0.57812-0.14062 0.86719-0.21484h-0.003906c0.63672-0.15234 1.2578-0.34766 1.8672-0.57812 0.30859-0.11719 0.60547-0.24609 0.90234-0.38281 0.57812-0.26953 1.1406-0.57031 1.6797-0.91016 0.25-0.15625 0.50781-0.29687 0.75-0.46484 0.69141-0.48047 1.3398-1.0156 1.9453-1.6016 0.050781-0.050781 0.11328-0.089844 0.16406-0.14062l0.003907-0.003906c0.64453-0.65234 1.2266-1.3594 1.75-2.1133 0.15625-0.22266 0.28125-0.46094 0.42578-0.6875h-0.003906c0.35156-0.55469 0.66406-1.1328 0.94141-1.7266 0.13281-0.29297 0.25391-0.58984 0.37109-0.89062 0.10156-0.25 0.23438-0.48828 0.31641-0.74609zm-21.164-55.34c0.042968-2.1641 1.8008-3.8945 3.9648-3.9062h2.3359c2.1641 0.011719 3.9219 1.7422 3.9648 3.9062v50.516c-0.042968 2.1641-1.8008 3.8984-3.9648 3.9102h-2.3359c-2.1641-0.011719-3.9219-1.7461-3.9648-3.9102zm-83.836 55.34c0.003906 0.18359 0.007812 0.36328 0.007812 0.54297h0.003907c0 5.7344-3.0586 11.027-8.0234 13.895-4.9609 2.8633-11.078 2.8633-16.039 0-4.9648-2.8672-8.0234-8.1602-8.0234-13.895 0-0.18359 0-0.36328 0.007813-0.54297 0.085937 0.25781 0.21484 0.49609 0.3125 0.74609 0.11719 0.30078 0.23828 0.59766 0.37109 0.89062h0.003906c0.27734 0.59375 0.58984 1.168 0.9375 1.7227 0.14453 0.23437 0.26953 0.46875 0.42578 0.69141l0.003906 0.003906c0.51953 0.75391 1.1055 1.4609 1.75 2.1094 0.050781 0.050781 0.11328 0.089844 0.16406 0.14062v0.003906c0.60547 0.58594 1.2578 1.1211 1.9492 1.6016 0.24219 0.16797 0.5 0.3125 0.75 0.46484l-0.003906 0.003907c0.54297 0.33594 1.1016 0.63672 1.6797 0.90625 0.29688 0.13672 0.59375 0.26562 0.90234 0.38281 0.60937 0.23438 1.2344 0.42578 1.8672 0.57812 0.29297 0.070313 0.57031 0.16016 0.86719 0.21484 0.95313 0.1875 1.918 0.28516 2.8867 0.29297h2.3359c0.96875-0.007813 1.9336-0.10547 2.8867-0.29297 0.29687-0.054688 0.57812-0.14062 0.86719-0.21484h-0.003906c0.63672-0.15234 1.2578-0.34766 1.8672-0.57812 0.30859-0.11719 0.60547-0.24609 0.90234-0.38281 0.57812-0.26953 1.1406-0.57031 1.6797-0.91016 0.25-0.15625 0.50781-0.29687 0.75-0.46484 0.69141-0.48047 1.3398-1.0156 1.9453-1.6016 0.050781-0.050781 0.11719-0.089844 0.16406-0.14062l0.003907-0.003906c0.64453-0.65234 1.2266-1.3594 1.75-2.1133 0.15625-0.22266 0.28125-0.46094 0.42578-0.6875h-0.003906c0.35156-0.55469 0.66406-1.1328 0.94141-1.7266 0.13281-0.29297 0.25391-0.58984 0.37109-0.89062 0.10156-0.25 0.23438-0.48828 0.31641-0.74609zm-21.164-55.34c0.042968-2.1641 1.8008-3.8945 3.9648-3.9062h2.3359c2.1641 0.011719 3.9219 1.7422 3.9648 3.9062v50.516c-0.042968 2.1641-1.8008 3.8984-3.9648 3.9102h-2.3359c-2.1641-0.011719-3.9219-1.7461-3.9648-3.9102zm-64.867 42.758c0.003906-4.6367 1.8516-9.0859 5.1328-12.367 3.2773-3.2812 7.7266-5.125 12.367-5.1328h35.699v8.5781c-6.1836 4.7148-10.102 11.812-10.797 19.562-0.69531 7.7461 1.9023 15.43 7.1484 21.168 5.25 5.7422 12.672 9.0117 20.449 9.0117s15.199-3.2695 20.449-9.0117c5.2461-5.7383 7.8438-13.422 7.1484-21.168-0.69531-7.75-4.6133-14.848-10.797-19.562v-8.5781h71.398v8.5781c-6.1836 4.7148-10.102 11.812-10.797 19.562-0.69531 7.7461 1.9023 15.43 7.1484 21.168 5.25 5.7422 12.672 9.0117 20.449 9.0117s15.199-3.2695 20.449-9.0117c5.2461-5.7383 7.8438-13.422 7.1484-21.168-0.69531-7.75-4.6133-14.848-10.797-19.562v-8.5781h71.398v8.5781c-6.1836 4.7148-10.102 11.812-10.797 19.562-0.69531 7.7461 1.9023 15.43 7.1484 21.168 5.25 5.7422 12.672 9.0117 20.449 9.0117s15.199-3.2695 20.449-9.0117c5.2461-5.7383 7.8438-13.422 7.1484-21.168-0.69531-7.75-4.6133-14.848-10.797-19.562v-8.5781h71.398v8.5781c-6.1836 4.7148-10.102 11.812-10.797 19.562-0.69531 7.7461 1.9023 15.43 7.1484 21.168 5.25 5.7422 12.672 9.0117 20.449 9.0117s15.199-3.2695 20.449-9.0117c5.2461-5.7383 7.8438-13.422 7.1484-21.168-0.69531-7.75-4.6133-14.848-10.797-19.562v-8.5781h35.699c4.6406 0.007813 9.0898 1.8516 12.367 5.1328 3.2812 3.2812 5.1289 7.7305 5.1328 12.367v64.168h-455zm31.91 379.17c-8.4609-0.007812-16.57-3.375-22.555-9.3555-5.9805-5.9844-9.3477-14.094-9.3555-22.555v-271.42h455v157.5c0.54297 5.9336-1.8672 11.754-6.4414 15.566-10.309 7.8047-31.383 4.1914-38.633 2.1523l-0.003906 0.003906c-3.0742-0.85938-6.2656 0.90234-7.1836 3.957-0.26562 0.88672-27.359 89.375-113.72 120.89-5.8789 2.1602-12.09 3.2656-18.352 3.2656zm421.05-119.37c-9.8516 61.125-55.477 90.477-125.84 110.36 55.504-34.418 78.891-89.344 85.07-106.61 9.168 1.8125 27.801 3.9961 40.766-3.75zm2.043 87.492c-0.007812 8.4531-3.3711 16.555-9.3477 22.531-5.9766 5.9766-14.082 9.3398-22.535 9.3477h-85.168c57.289-17.102 98.211-41.09 117.05-83.836zm-177.65-79.848c-0.0625 9.5977 4.5352 18.629 12.328 24.23 7.7969 5.6016 17.824 7.0742 26.902 3.9531 9.0742-3.1211 16.074-10.453 18.777-19.664 4.4219 3.418 9.8516 5.2773 15.438 5.3008 6.832-0.019531 13.375-2.7461 18.195-7.582 4.8242-4.8398 7.5273-11.391 7.5273-18.219v-6.1523h4.2422c5.75 0.042969 11.273-2.2539 15.289-6.3711 4.1602-4.0547 6.4883-9.6289 6.4531-15.438 0.003906-5.7734-2.2852-11.309-6.3633-15.398-4.0742-4.0859-9.6055-6.3906-15.379-6.4062h-4.2422v-6.1523c0.027344-6.8398-2.6719-13.402-7.5-18.246s-11.383-7.5625-18.223-7.5547c-5.5938 0.019531-11.031 1.8867-15.457 5.3125-2.6914-9.2148-9.6875-16.547-18.766-19.676-9.0742-3.125-19.105-1.6523-26.898 3.9492-7.7969 5.6016-12.391 14.637-12.324 24.234v18.133h-99.695v-18.133c0.10547-9.7266-4.5742-18.887-12.523-24.5-7.9492-5.6094-18.145-6.9531-27.277-3.5938-9.1289 3.3594-16.027 10.992-18.441 20.414-5.1289-3.7812-11.48-5.5234-17.82-4.8828-6.3359 0.63672-12.215 3.6094-16.484 8.3398-4.2695 4.7266-6.6289 10.875-6.6211 17.246v5.1094h-4.2461c-5.75-0.046875-11.27 2.2539-15.289 6.3672-4.1562 4.0586-6.4844 9.6289-6.4492 15.438-0.003906 5.7734 2.2852 11.312 6.3633 15.402 4.0742 4.0859 9.6055 6.3906 15.379 6.4062h4.2422v5.1094c-0.003906 6.832 2.7031 13.383 7.5234 18.223 4.8242 4.8359 11.367 7.5625 18.199 7.582 5.4766-0.015626 10.801-1.8008 15.184-5.0859 2.4648 9.3828 9.3672 16.965 18.477 20.293 9.1133 3.332 19.277 1.9883 27.211-3.5938s12.633-14.695 12.574-24.395v-18.133h99.695zm99.168-50.078h4.2422v-0.003906c5.5781 0.027344 10.086 4.5625 10.074 10.141 0.015625 2.7188-1.0859 5.3242-3.0508 7.207-1.8398 1.8984-4.3789 2.957-7.0234 2.9336h-4.2422zm-39.773-17.82c-0.03125-5.6992 3.3828-10.852 8.6445-13.047 5.2578-2.1992 11.32-1 15.355 3.0273 2.6289 2.6719 4.1055 6.2695 4.1055 10.02v55.918c0.023438 3.7422-1.4453 7.3398-4.082 9.9961-2.6406 2.6562-6.2266 4.1484-9.9727 4.1484-3.7422 0-7.3281-1.4922-9.9688-4.1484-2.6367-2.6562-4.1055-6.2539-4.082-9.9961zm-47.727 43.934v-55.914c-0.035156-4.793 1.8438-9.4023 5.2227-12.805 3.375-3.4023 7.9688-5.3203 12.766-5.3242 4.793 0 9.3906 1.9062 12.77 5.3047 3.3789 3.4141 5.2852 8.0195 5.3008 12.824v79.879c0.027343 4.7969-1.8594 9.4102-5.2422 12.816-3.3867 3.4023-7.9883 5.3164-12.789 5.3164-4.7969 0-9.3984-1.9141-12.785-5.3164-3.3828-3.4062-5.2695-8.0195-5.2422-12.816zm-210.53-5.832h-4.2422v-0.003906c-5.5781-0.023437-10.086-4.5586-10.074-10.141-0.015625-2.7188 1.0859-5.3242 3.0508-7.207 1.8398-1.8945 4.3789-2.9531 7.0234-2.9336h4.2422zm39.773 16.777v-0.003906c-0.078124 7.7422-6.3086 14.012-14.051 14.141-7.7852-0.03125-14.07-6.3594-14.055-14.141v-53.832c-0.007813-3.7539 1.4883-7.3516 4.1523-9.9922 2.5977-2.6719 6.1758-4.168 9.9023-4.1484 7.7422 0.125 13.973 6.3984 14.051 14.141zm47.727-42.891v55.914-0.003906c0.027344 4.7969-1.8594 9.4102-5.2422 12.816-3.3867 3.4023-7.9883 5.3164-12.785 5.3164-4.8008 0-9.4023-1.9141-12.789-5.3164-3.3828-3.4062-5.2695-8.0195-5.2422-12.816v-79.879c0.015625-4.8008 1.918-9.4062 5.2969-12.816 3.3828-3.4023 7.9766-5.3125 12.773-5.3086 4.793 0 9.3906 1.9141 12.766 5.3164 3.3789 3.4023 5.2578 8.0156 5.2227 12.809zm11.668 26.113v-20.285h99.695v20.281zm61.516-10.145c0 1.5469-0.61719 3.0312-1.7109 4.125s-2.5781 1.7109-4.125 1.7109h-11.664c-3.2227 0-5.8359-2.6133-5.8359-5.8359 0-3.2188 2.6133-5.832 5.8359-5.832h11.668-0.003907c1.5469 0 3.0312 0.61328 4.125 1.707s1.7109 2.5781 1.7109 4.125z"/>
  <use x="70" y="647.5" xlink:href="#v"/>
  <use x="91.40625" y="647.5" xlink:href="#d"/>
  <use x="105.789062" y="647.5" xlink:href="#b"/>
  <use x="125.570312" y="647.5" xlink:href="#h"/>
  <use x="145.253906" y="647.5" xlink:href="#a"/>
  <use x="159.195312" y="647.5" xlink:href="#b"/>
  <use x="178.976562" y="647.5" xlink:href="#g"/>
  <use x="210.007812" y="647.5" xlink:href="#c"/>
  <use x="230.886719" y="647.5" xlink:href="#l"/>
  <use x="260.054688" y="647.5" xlink:href="#k"/>
  <use x="282.625" y="647.5" xlink:href="#c"/>
  <use x="303.503906" y="647.5" xlink:href="#g"/>
  <use x="324.382812" y="647.5" xlink:href="#f"/>
  <use x="345.148438" y="647.5" xlink:href="#j"/>
  <use x="365.296875" y="647.5" xlink:href="#u"/>
  <use x="394.324219" y="647.5" xlink:href="#f"/>
  <use x="415.085937" y="647.5" xlink:href="#a"/>
  <use x="429.027344" y="647.5" xlink:href="#i"/>
  <use x="449.792969" y="647.5" xlink:href="#h"/>
  <use x="469.476562" y="647.5" xlink:href="#j"/>
  <use x="479.472656" y="647.5" xlink:href="#t"/>
  <use x="489.46875" y="647.5" xlink:href="#c"/>
  <use x="70" y="676.667969" xlink:href="#s"/>
  <use x="82.6875" y="676.667969" xlink:href="#d"/>
  <use x="97.074219" y="676.667969" xlink:href="#e"/>
  <use x="117.109375" y="676.667969" xlink:href="#r"/>
  <use x="157.65625" y="676.667969" xlink:href="#a"/>
  <use x="171.597656" y="676.667969" xlink:href="#i"/>
  <use x="192.363281" y="676.667969" xlink:href="#b"/>
  <use x="222.300781" y="676.667969" xlink:href="#q"/>
  <use x="246.710938" y="676.667969" xlink:href="#e"/>
  <use x="266.746094" y="676.667969" xlink:href="#f"/>
  <use x="287.511719" y="676.667969" xlink:href="#p"/>
  <use x="318.429688" y="676.667969" xlink:href="#o"/>
  <use x="339.804688" y="676.667969" xlink:href="#d"/>
  <use x="354.191406" y="676.667969" xlink:href="#e"/>
  <use x="374.226562" y="676.667969" xlink:href="#n"/>
  <use x="384.226562" y="676.667969" xlink:href="#b"/>
  <use x="404.007812" y="676.667969" xlink:href="#m"/>
  <use x="421.296875" y="676.667969" xlink:href="#a"/>
 </g>
</svg>
